<?xml version="1.0" encoding="utf-8"?>
<!-- Generator: Adobe Illustrator 28.2.0, SVG Export Plug-In . SVG Version: 6.00 Build 0)  -->
<svg version="1.1" id="Layer_1" xmlns="http://www.w3.org/2000/svg" xmlns:xlink="http://www.w3.org/1999/xlink" x="0px" y="0px"
	 viewBox="0 0 332.99 70.73" style="enable-background:new 0 0 332.99 70.73;" xml:space="preserve">
<style type="text/css">
	.st0{fill:#FF2056;}
	.st1{fill:#3B3D3F;}
</style>
<g>
	<path class="st0" d="M70.85,35.5c0,4.77,0.06,9.54-0.01,14.32c-0.16,12.15-8.85,20.8-21.02,20.87c-9.46,0.06-18.91,0.05-28.37,0
		C9.73,70.63,1.3,63.16,0.49,51.46c-0.74-10.61-0.55-21.27-0.03-31.89C1.01,8.38,9.44,0.37,20.7,0.14c9.95-0.2,19.91-0.18,29.86,0
		c11.42,0.21,20.07,9.04,20.26,20.44C70.92,25.56,70.85,30.53,70.85,35.5z M8.04,36.05c0,5.18-0.04,9.54,0.01,13.89
		c0.08,7.22,4.63,12.49,11.83,12.82c10.64,0.49,21.3,0.48,31.94-0.03c5.12-0.25,9.55-4.07,10.76-8.94c0.84-3.38,0.74-6.87,0.26-10.4
		c-6.37-3.52-12.64-6.96-18.88-10.45c-2.6-1.46-5.02-2.71-8.35-2.17c-3.83,0.61-7.29-3.12-7.31-6.98c-0.02-3.87,3.32-7.15,7.29-7.13
		c4.7,0.03,6.47,3.21,7.54,7.23c6.45,3.54,12.91,7.08,19.88,10.91c0.07-6.34,0.66-11.91-0.35-17.4c-0.92-5.01-5.97-9.23-11.11-9.29
		C41,7.96,30.44,7.94,19.89,8.08C13.8,8.15,8.68,13.06,8.16,19.13c-0.23,2.66-0.04,5.35-0.04,8.29c7.99,4.4,15.98,8.81,23.77,13.11
		c6.06-1.1,9.7,0.68,10.71,5.05c0.79,3.43-1.35,7.24-4.69,8.34c-4.44,1.46-7.73-0.78-10.01-6.94C21.62,43.51,15.2,39.99,8.04,36.05z
		"/>
	<g>
		<path class="st1" d="M116.71,37.44c-1.09-0.94-2.37-1.73-3.82-2.38c-1.45-0.65-3.02-1.16-4.71-1.53l-3.63-0.89
			c-1.11-0.27-2.16-0.6-3.15-1.01c-0.99-0.4-1.77-0.93-2.37-1.59c-0.59-0.65-0.89-1.47-0.89-2.46c0-0.9,0.26-1.69,0.77-2.39
			c0.51-0.7,1.26-1.25,2.25-1.64c0.99-0.39,2.17-0.59,3.55-0.59c2.04,0,3.68,0.44,4.91,1.32c1.23,0.88,1.91,2.12,2.06,3.74h7.93
			c-0.04-2.35-0.67-4.42-1.91-6.23c-1.24-1.8-2.96-3.21-5.16-4.22c-2.21-1.01-4.79-1.52-7.75-1.52c-2.9,0-5.49,0.5-7.76,1.51
			s-4.05,2.41-5.35,4.22c-1.3,1.81-1.95,3.93-1.95,6.35c0,2.9,0.96,5.24,2.88,7.01c1.92,1.77,4.57,3.06,7.96,3.89l4.41,1.1
			c1.47,0.34,2.72,0.74,3.74,1.18c1.02,0.45,1.81,0.98,2.35,1.6c0.55,0.62,0.82,1.39,0.82,2.3c0,1.02-0.3,1.92-0.91,2.69
			c-0.61,0.77-1.46,1.37-2.54,1.79s-2.36,0.63-3.83,0.63c-1.47,0-2.79-0.22-3.95-0.67c-1.17-0.45-2.1-1.12-2.8-2.03
			c-0.7-0.91-1.1-2.03-1.21-3.38h-7.99c0.07,2.83,0.77,5.22,2.1,7.15c1.33,1.94,3.18,3.4,5.55,4.38c2.38,0.99,5.17,1.48,8.38,1.48
			c3.25,0,6.02-0.49,8.34-1.48c2.31-0.99,4.08-2.38,5.3-4.18c1.22-1.8,1.83-3.91,1.83-6.33c0-1.68-0.3-3.17-0.9-4.46
			C118.65,39.5,117.8,38.38,116.71,37.44z"/>
		<polygon class="st1" points="153.58,26.59 144.25,26.59 134.41,38.16 133.95,38.16 133.95,16.59 125.88,16.59 125.88,56.66 
			133.95,56.66 133.95,47.01 136.26,44.41 144.65,56.66 154.15,56.66 142.34,39.65 		"/>
		<path class="st1" d="M161.87,14.38c-1.22,0-2.26,0.4-3.12,1.21c-0.86,0.81-1.29,1.78-1.29,2.93c0,1.15,0.43,2.12,1.29,2.93
			c0.86,0.81,1.9,1.21,3.12,1.21c1.22,0,2.26-0.4,3.13-1.21c0.87-0.81,1.3-1.78,1.3-2.93c0-1.15-0.43-2.12-1.3-2.93
			C164.13,14.79,163.09,14.38,161.87,14.38z"/>
		<rect x="157.83" y="26.59" class="st1" width="8.07" height="30.07"/>
		<rect x="172.76" y="16.59" class="st1" width="8.07" height="40.07"/>
		<rect x="187.68" y="16.59" class="st1" width="8.07" height="40.07"/>
		<path class="st1" d="M229.5,37.44c-1.09-0.94-2.37-1.73-3.82-2.38c-1.45-0.65-3.02-1.16-4.71-1.53l-3.63-0.89
			c-1.11-0.27-2.16-0.6-3.15-1.01c-0.99-0.4-1.77-0.93-2.37-1.59c-0.59-0.65-0.89-1.47-0.89-2.46c0-0.9,0.26-1.69,0.77-2.39
			c0.51-0.7,1.26-1.25,2.25-1.64c0.99-0.39,2.17-0.59,3.55-0.59c2.04,0,3.68,0.44,4.91,1.32c1.23,0.88,1.91,2.12,2.06,3.74h7.93
			c-0.04-2.35-0.67-4.42-1.91-6.23c-1.24-1.8-2.96-3.21-5.16-4.22c-2.21-1.01-4.79-1.52-7.75-1.52c-2.9,0-5.49,0.5-7.76,1.51
			s-4.05,2.41-5.35,4.22c-1.3,1.81-1.95,3.93-1.95,6.35c0,2.9,0.96,5.24,2.88,7.01c1.92,1.77,4.57,3.06,7.96,3.89l4.41,1.1
			c1.47,0.34,2.72,0.74,3.74,1.18c1.02,0.45,1.81,0.98,2.35,1.6c0.55,0.62,0.82,1.39,0.82,2.3c0,1.02-0.3,1.92-0.91,2.69
			c-0.61,0.77-1.46,1.37-2.54,1.79c-1.08,0.42-2.36,0.63-3.83,0.63c-1.47,0-2.79-0.22-3.95-0.67c-1.17-0.45-2.1-1.12-2.8-2.03
			c-0.7-0.91-1.1-2.03-1.21-3.38h-7.99c0.07,2.83,0.77,5.22,2.1,7.15c1.33,1.94,3.18,3.4,5.55,4.38c2.38,0.99,5.17,1.48,8.38,1.48
			c3.25,0,6.02-0.49,8.34-1.48c2.31-0.99,4.08-2.38,5.3-4.18c1.22-1.8,1.83-3.91,1.83-6.33c0-1.68-0.3-3.17-0.9-4.46
			C231.44,39.5,230.6,38.38,229.5,37.44z"/>
		<path class="st1" d="M253.79,42.19c-0.65,1.95-1.21,3.92-1.69,5.9c-0.16,0.66-0.32,1.35-0.49,2.03c-0.14-0.68-0.29-1.36-0.41-2.02
			c-0.39-1.97-0.88-3.94-1.49-5.92l-5.06-15.6h-8.58l11.29,30.15l-0.21,1.61c-0.11,1-0.42,1.78-0.93,2.34
			c-0.51,0.56-1.19,0.9-2.03,1.02c-0.84,0.12-1.8,0.04-2.88-0.24l-0.99-0.24l-1.86,6.08c0.57,0.23,1.33,0.43,2.26,0.58
			c0.93,0.15,1.94,0.23,3.01,0.23c2.01,0,3.72-0.32,5.14-0.97c1.42-0.65,2.6-1.56,3.55-2.74c0.95-1.18,1.73-2.58,2.34-4.2
			l12.77-33.62h-8.47L253.79,42.19z"/>
		<path class="st1" d="M294.36,27.57c-1.55-0.9-3.37-1.36-5.45-1.36c-2.55,0-4.62,0.69-6.23,2.06c-1.33,1.13-2.36,2.68-3.13,4.59
			l-0.11-6.28h-7.61v30.07h8.07v-17.4c0-1.35,0.25-2.48,0.74-3.42c0.49-0.93,1.18-1.64,2.07-2.14c0.89-0.49,1.9-0.74,3.03-0.74
			c1.7,0,3.03,0.53,3.99,1.59c0.96,1.06,1.44,2.52,1.44,4.38v17.72h8.07V37.54c0-2.35-0.43-4.37-1.28-6.06
			C297.11,29.78,295.91,28.48,294.36,27.57z"/>
		<path class="st1" d="M325.49,45.66c-0.14,0.81-0.39,1.53-0.73,2.18c-0.34,0.65-0.76,1.2-1.26,1.65c-0.5,0.46-1.08,0.81-1.72,1.05
			c-0.65,0.24-1.35,0.36-2.12,0.36c-1.44,0-2.64-0.39-3.62-1.18c-0.98-0.79-1.71-1.87-2.21-3.25c-0.49-1.38-0.74-2.96-0.74-4.73
			c0-1.81,0.25-3.41,0.74-4.79c0.49-1.38,1.23-2.46,2.21-3.23c0.98-0.77,2.18-1.16,3.62-1.16c0.77,0,1.47,0.12,2.11,0.35
			c0.64,0.23,1.2,0.57,1.68,1.01c0.48,0.44,0.9,0.97,1.24,1.59c0.34,0.62,0.59,1.32,0.75,2.11l7.5-1.4
			c-0.29-1.54-0.81-2.93-1.56-4.17c-0.75-1.24-1.71-2.29-2.88-3.15c-1.17-0.86-2.5-1.52-4.01-1.99c-1.51-0.47-3.15-0.7-4.92-0.7
			c-3.03,0-5.64,0.65-7.84,1.95c-2.2,1.3-3.89,3.11-5.08,5.43c-1.19,2.32-1.79,5.04-1.79,8.16c0,3.08,0.6,5.79,1.79,8.11
			s2.89,4.13,5.08,5.43c2.2,1.3,4.81,1.95,7.84,1.95c1.79,0,3.45-0.23,4.96-0.7c1.51-0.47,2.85-1.15,4.02-2.04
			c1.16-0.9,2.12-1.97,2.88-3.21c0.75-1.25,1.27-2.67,1.56-4.26L325.49,45.66z"/>
	</g>
</g>
</svg>
