<?xml version="1.0" encoding="utf-8"?>
<!-- Generator: Adobe Illustrator 28.2.0, SVG Export Plug-In . SVG Version: 6.00 Build 0)  -->
<svg version="1.1" id="Layer_1" xmlns="http://www.w3.org/2000/svg" xmlns:xlink="http://www.w3.org/1999/xlink" x="0px" y="0px"
	 viewBox="0 0 161.9 161.56" style="enable-background:new 0 0 161.9 161.56;" xml:space="preserve">
<style type="text/css">
	.st0{fill:#FF6B00;}
</style>
<path class="st0" d="M161.85,81.09c0.01,10.9,0.13,21.8-0.02,32.7c-0.36,27.76-20.22,47.51-48.01,47.67
	c-21.6,0.13-43.21,0.11-64.81,0.01c-26.77-0.13-46.04-17.2-47.89-43.94c-1.68-24.23-1.26-48.59-0.07-72.85
	C2.3,19.14,21.57,0.84,47.3,0.33c22.73-0.46,45.49-0.41,68.22,0.01c26.09,0.48,45.84,20.66,46.29,46.7
	C162,58.38,161.84,69.74,161.85,81.09z M18.37,82.35c0,11.84-0.09,21.78,0.02,31.72c0.18,16.5,10.58,28.54,27.03,29.29
	c24.3,1.11,48.66,1.1,72.97-0.07c11.71-0.56,21.81-9.29,24.58-20.43c1.92-7.73,1.69-15.69,0.6-23.77
	c-14.54-8.04-28.87-15.9-43.14-23.87c-5.95-3.33-11.46-6.18-19.08-4.96c-8.75,1.4-16.66-7.12-16.71-15.96
	c-0.05-8.85,7.59-16.34,16.66-16.29c10.74,0.07,14.79,7.33,17.22,16.51c14.73,8.08,29.49,16.18,45.42,24.93
	c0.17-14.49,1.5-27.2-0.81-39.74c-2.11-11.44-13.64-21.08-25.38-21.23c-24.1-0.3-48.22-0.34-72.32-0.03
	c-13.92,0.18-25.61,11.39-26.8,25.24c-0.52,6.07-0.09,12.22-0.09,18.94c18.25,10.06,36.5,20.12,54.31,29.94
	c13.84-2.51,22.15,1.56,24.46,11.53c1.82,7.83-3.08,16.55-10.71,19.05c-10.15,3.33-17.67-1.77-22.88-15.85
	C49.38,99.4,34.73,91.35,18.37,82.35z"/>
</svg>
